<?xml version="1.0" encoding="utf-8"?>
<!-- Generator: Adobe Illustrator 22.0.1, SVG Export Plug-In . SVG Version: 6.00 Build 0)  -->
<svg version="1.1" id="Layer_1" xmlns="http://www.w3.org/2000/svg" xmlns:xlink="http://www.w3.org/1999/xlink" x="0px" y="0px"
	 viewBox="0 0 400 400" style="enable-background:new 0 0 400 400;" xml:space="preserve">
<style type="text/css">
	.st0{opacity:0.3;fill:#818A99;}
	.st1{opacity:0.5;fill:url(#SVGID_1_);}
	.st2{fill:none;stroke:#818A99;stroke-width:6;stroke-linecap:round;stroke-miterlimit:10;}
	.st3{fill:none;stroke:#818A99;stroke-width:6;stroke-linecap:round;stroke-linejoin:round;stroke-miterlimit:10;}
	.st4{fill:#FFFFFF;}
	.st5{fill:#818A99;}
</style>
<path class="st0" d="M319,224.7H171.2c-4,0-7.2-3.2-7.2-7.2V95.9c0-4,3.2-7.2,7.2-7.2H319c4,0,7.2,3.2,7.2,7.2v121.6
	C326.3,221.5,323,224.7,319,224.7z"/>
<linearGradient id="SVGID_1_" gradientUnits="userSpaceOnUse" x1="110.5944" y1="350.5265" x2="110.5944" y2="53.8306">
	<stop  offset="0.1361" style="stop-color:#C2C6CD;stop-opacity:0"/>
	<stop  offset="0.2077" style="stop-color:#B3B8C1;stop-opacity:5.521750e-02"/>
	<stop  offset="0.3336" style="stop-color:#A0A6B1;stop-opacity:0.1523"/>
	<stop  offset="0.4797" style="stop-color:#929AA6;stop-opacity:0.265"/>
	<stop  offset="0.6629" style="stop-color:#8A92A0;stop-opacity:0.4062"/>
	<stop  offset="1" style="stop-color:#88909E;stop-opacity:0.6662"/>
</linearGradient>
<path class="st1" d="M81.5,350.5h58.2c5,0,9.1-4.1,9.1-9.1V62.9c0-5-4.1-9.1-9.1-9.1H81.5c-5,0-9.1,4.1-9.1,9.1v278.6
	C72.4,346.5,76.5,350.5,81.5,350.5z"/>
<g>
	<line class="st2" x1="91.4" y1="77.3" x2="129.8" y2="77.3"/>
	<line class="st2" x1="91.4" y1="103.1" x2="129.8" y2="103.1"/>
	<line class="st2" x1="91.4" y1="128.9" x2="129.8" y2="128.9"/>
	<line class="st2" x1="91.4" y1="154.7" x2="129.8" y2="154.7"/>
	<line class="st2" x1="91.4" y1="180.5" x2="129.8" y2="180.5"/>
</g>
<g>
	<line class="st3" x1="169.7" y1="244" x2="212.2" y2="244"/>
	<line class="st3" x1="169.7" y1="270.4" x2="212.2" y2="270.4"/>
	<line class="st3" x1="169.7" y1="296.7" x2="212.2" y2="296.7"/>
	<line class="st3" x1="242.2" y1="244" x2="284.6" y2="244"/>
	<line class="st3" x1="242.2" y1="270.4" x2="284.6" y2="270.4"/>
</g>
<g>
	<g>
		<path class="st4" d="M209.3,136.4h-19c-2.4,0-4.4-2-4.4-4.4v-19c0-2.4,2-4.4,4.4-4.4h19c2.4,0,4.4,2,4.4,4.4v19
			C213.7,134.5,211.7,136.4,209.3,136.4z"/>
	</g>
	<g>
		<path class="st4" d="M254.6,136.4h-19c-2.4,0-4.4-2-4.4-4.4v-19c0-2.4,2-4.4,4.4-4.4h19c2.4,0,4.4,2,4.4,4.4v19
			C259,134.5,257,136.4,254.6,136.4z"/>
	</g>
	<g>
		<path class="st4" d="M299.9,136.4h-19c-2.4,0-4.4-2-4.4-4.4v-19c0-2.4,2-4.4,4.4-4.4h19c2.4,0,4.4,2,4.4,4.4v19
			C304.2,134.5,302.3,136.4,299.9,136.4z"/>
	</g>
</g>
<path class="st5" d="M320.4,74.3H169.8c-3.2,0-5.9-2.6-5.9-5.9v-8.7c0-3.2,2.6-5.9,5.9-5.9h150.6c3.2,0,5.9,2.6,5.9,5.9v8.7
	C326.3,71.7,323.6,74.3,320.4,74.3z"/>
<path class="st5" d="M340.5,155.9l-46.5-33c-1.5-1-3.8,0.3-3.6,2.1l5.3,56.8c0.2,1.8,2.7,2.1,3.9,0.6l11.6-15.2l14.1,24.4
	c0.9,1.6,3.1,2,4.9,0.9l2.2-1.3c1.8-1.1,2.6-3.2,1.7-4.7L320,162l19-2.5C341,159.3,341.9,157,340.5,155.9z"/>
</svg>
