<?xml version="1.0" encoding="utf-8"?>
<!-- Generator: Adobe Illustrator 22.0.1, SVG Export Plug-In . SVG Version: 6.00 Build 0)  -->
<svg version="1.1" id="Layer_1" xmlns="http://www.w3.org/2000/svg" xmlns:xlink="http://www.w3.org/1999/xlink" x="0px" y="0px"
	 viewBox="0 0 300 300" style="enable-background:new 0 0 300 300;" xml:space="preserve">
<style type="text/css">
	.st0{opacity:0.7;fill:#818A99;}
	.st1{opacity:0.5;fill:#818A99;}
	.st2{opacity:0.6;fill:#818A99;}
	.st3{fill:#FFFFFF;stroke:#818A99;stroke-width:6;stroke-linejoin:round;stroke-miterlimit:10;}
	.st4{fill:#DADCE0;}
	.st5{fill:#818A99;}
	.st6{fill:#FFFFFF;}
</style>
<path class="st0" d="M183.1,184.7c-0.9,0.7-1.5,1.5-2.4,1.9c-4.5,2.2-9.1,4.2-13.6,6.3c-2.1,1-3.6,0.6-4.9-1.4
	c-1.9-2.8-3.7-5.7-6-8.2c-1.1-1.2-3-2.1-4.7-2.4c-5.1-0.9-8.7,1-10.5,6c-0.5,1.3-1.5,2.5-2.3,3.7c-2.9,4.6-2.9,4.6-7.7,2.8
	c-3.9-1.5-7.8-3-11.8-4.3c-2.3-0.8-3.3-2.1-2.8-4.6c0.6-3.2,0.9-6.5,1.6-9.7c0.5-2.4-0.2-3.9-1.8-5.7c-3.3-3.8-7-4.9-11.6-2.8
	c-0.4,0.2-0.9,0.2-1.3,0.3c-8.7,2-7.5,3.5-11.9-5.9c-1.3-2.9-2.5-5.8-3.9-8.7c-1-2.1-0.5-3.6,1.4-4.9c2.8-1.9,5.7-3.7,8.2-6
	c1.2-1.1,1.9-3.1,2.3-4.7c0.3-1.2,0.3-2.8-0.1-4c-0.6-1.6-1.4-3.5-2.7-4.5c-2.7-2.1-5.7-3.7-8.6-5.3c-2.1-1.2-2.4-2.8-1.7-4.9
	c1.7-4.6,3.4-9.1,5.1-13.7c0.9-2.5,2.7-3.1,5.1-2.7c3.3,0.6,6.7,1.2,10,1.7c3.9,0.5,9.3-5.3,8.5-9.1c-0.7-3.3-1.5-6.6-2.5-9.9
	c-0.7-2.6-0.1-4.3,2.5-5.4c4.3-1.8,8.5-3.8,12.7-5.8c2.5-1.2,4.2-0.7,5.8,1.6c1.7,2.6,3.6,4.9,5.2,7.5c1.4,2.1,2.9,3.3,5.6,2.7
	c1-0.2,2-0.1,3-0.1c2.5,0.1,4.2-0.7,5.4-3.2c1.4-2.9,3.4-5.6,5.1-8.4c1.1-1.9,2.5-2.4,4.5-1.7c4.8,1.8,9.5,3.6,14.4,5.3
	c2.3,0.8,2.8,2.3,2.4,4.5c-0.6,3.6-1.4,7.1-1.7,10.7c-0.1,1.2,0.6,2.8,1.3,3.8c3.2,4.5,7.1,5.3,12.6,3.7c10-3,8.5-3.7,13.1,6.2
	c1.2,2.6,2.2,5.2,3.5,7.8c1.1,2.2,0.6,3.9-1.4,5.3c-2.8,2-5.6,3.9-8.3,5.9c-3.5,2.6-3.2,10.5,0.5,12.9c2.8,1.8,5.6,3.5,8.4,5.1
	c2.1,1.2,3,2.7,2.2,5c-1.8,4.8-3.5,9.6-5.3,14.3c-0.7,1.9-2.1,2.7-4.3,2.3c-3.2-0.6-6.5-0.9-9.7-1.7c-2.5-0.6-4.2,0-5.6,1.9
	c-0.8,1-1.6,1.9-2.5,2.7c-1.7,1.4-1.9,3.1-1.3,5.1c0.9,3.2,1.6,6.4,2.4,9.6C183,182.5,183,183.5,183.1,184.7z M140.6,151.7
	c11,4.1,21.9-0.8,26-11.7c4.2-11-1.1-22.4-12.3-26.5c-10.5-3.8-22.2,1.7-26,12.3C124.5,136.4,129.9,147.8,140.6,151.7z"/>
<path class="st1" d="M175,48c-0.2,0.5-0.4,1-0.6,1.4c-1.5,2-3.1,3.9-4.6,5.8c-0.7,0.9-1.5,1.1-2.5,0.5c-1.5-0.8-2.9-1.7-4.5-2.3
	c-0.8-0.3-1.8-0.2-2.6,0c-2.4,0.7-3.6,2.4-3.3,5c0.1,0.7-0.1,1.4-0.2,2.2c-0.3,2.7-0.3,2.7-2.8,2.9c-2.1,0.2-4.1,0.4-6.2,0.7
	c-1.2,0.2-1.9-0.2-2.3-1.4c-0.4-1.6-1.1-3.1-1.4-4.7c-0.3-1.2-1-1.7-2.1-2.1c-2.3-1-4.2-0.6-5.8,1.3c-0.1,0.2-0.3,0.3-0.5,0.4
	c-3.4,2.8-2.6,3.2-6.6,0c-1.2-1-2.4-2-3.7-3c-0.9-0.7-1-1.5-0.5-2.5c0.8-1.5,1.7-2.9,2.3-4.5c0.3-0.8,0.1-1.8,0-2.6
	c-0.1-0.6-0.5-1.3-0.9-1.8c-0.6-0.6-1.4-1.2-2.2-1.4c-1.6-0.3-3.3-0.4-5-0.4c-1.2-0.1-1.7-0.7-1.8-1.8c-0.3-2.4-0.5-4.8-0.8-7.2
	c-0.2-1.3,0.5-2,1.7-2.3c1.6-0.5,3.2-0.9,4.8-1.5c1.9-0.6,3-4.4,1.7-5.9c-1.1-1.3-2.2-2.6-3.3-3.8c-0.9-1-1-1.9-0.1-3
	c1.5-1.8,2.9-3.6,4.3-5.4c0.8-1.1,1.7-1.3,2.9-0.6c1.3,0.8,2.7,1.4,4,2.2c1.1,0.6,2,0.8,3.1,0c0.4-0.3,0.9-0.5,1.3-0.7
	c1.1-0.5,1.7-1.3,1.7-2.6c0-1.6,0.3-3.2,0.4-4.9c0.1-1.1,0.6-1.6,1.6-1.7c2.5-0.3,5-0.5,7.5-0.8c1.2-0.2,1.8,0.4,2.1,1.5
	c0.5,1.7,1,3.5,1.6,5.1c0.2,0.6,0.9,1.1,1.4,1.4c2.4,1.3,4.3,0.8,6.4-1.2c3.8-3.6,2.9-3.5,7.2-0.2c1.1,0.9,2.2,1.8,3.3,2.7
	c1,0.7,1.1,1.6,0.6,2.6c-0.8,1.5-1.6,3-2.4,4.5c-1,2,0.9,5.4,3.1,5.6c1.6,0.2,3.2,0.3,4.9,0.4c1.2,0.1,1.9,0.5,2.1,1.7
	c0.3,2.5,0.6,5,0.8,7.5c0.1,1-0.3,1.7-1.4,2c-1.6,0.4-3.1,1.1-4.7,1.4c-1.2,0.3-1.8,0.9-2.1,2.1c-0.1,0.6-0.3,1.2-0.5,1.8
	c-0.4,1-0.2,1.8,0.6,2.6c1.1,1.2,2.1,2.5,3.2,3.7C174.4,47,174.6,47.5,175,48z M148.7,42.8c5.8-0.6,9.5-5.2,8.9-11
	c-0.6-5.8-5.5-9.7-11.4-9c-5.5,0.7-9.5,5.7-8.8,11.2C138.2,39.6,143.1,43.5,148.7,42.8z"/>
<path class="st2" d="M188.1,63.1c0.1-0.3,0.1-0.5,0.2-0.7c0.6-1,1.3-2.1,2-3.1c0.3-0.5,0.7-0.6,1.2-0.4c0.8,0.3,1.5,0.7,2.3,0.9
	c0.4,0.1,0.9,0,1.3-0.1c1.2-0.5,1.7-1.4,1.4-2.6c-0.1-0.3,0-0.7,0-1.1c0-1.3,0-1.3,1.2-1.6c1-0.2,2-0.4,3-0.7c0.6-0.1,1,0,1.2,0.6
	c0.3,0.7,0.7,1.5,1,2.2c0.2,0.6,0.6,0.8,1.1,0.9c1.2,0.3,2.1,0.1,2.8-1c0.1-0.1,0.2-0.2,0.2-0.2c1.5-1.6,1.1-1.7,3.2-0.4
	c0.7,0.4,1.3,0.9,2,1.3c0.5,0.3,0.6,0.7,0.4,1.2c-0.3,0.8-0.7,1.5-0.9,2.3c-0.1,0.4,0,0.9,0.1,1.3c0.1,0.3,0.3,0.6,0.6,0.8
	c0.3,0.3,0.8,0.5,1.2,0.6c0.8,0.1,1.7,0,2.5-0.1c0.6,0,0.9,0.3,1,0.8c0.3,1.2,0.5,2.3,0.8,3.5c0.1,0.6-0.1,1-0.7,1.2
	c-0.8,0.3-1.5,0.6-2.3,1c-0.9,0.4-1.2,2.3-0.5,3c0.6,0.6,1.2,1.2,1.8,1.7c0.5,0.4,0.6,0.9,0.2,1.5c-0.6,0.9-1.2,1.9-1.8,2.9
	c-0.4,0.6-0.8,0.7-1.4,0.4c-0.7-0.3-1.4-0.5-2.1-0.9c-0.6-0.3-1-0.3-1.5,0.2c-0.2,0.2-0.4,0.3-0.6,0.4c-0.5,0.3-0.8,0.7-0.7,1.4
	c0.1,0.8,0,1.6,0.1,2.4c0,0.5-0.2,0.8-0.7,0.9c-1.2,0.3-2.4,0.5-3.7,0.8c-0.6,0.1-0.9-0.1-1.1-0.6c-0.3-0.8-0.7-1.6-1.1-2.4
	c-0.1-0.3-0.5-0.5-0.8-0.6c-1.3-0.5-2.2-0.1-3.1,0.9c-1.7,2-1.2,1.9-3.5,0.5c-0.6-0.4-1.2-0.8-1.7-1.1c-0.5-0.3-0.6-0.7-0.4-1.3
	c0.3-0.8,0.6-1.5,0.9-2.3c0.4-1-0.7-2.6-1.8-2.6c-0.8,0-1.6,0-2.4,0.1c-0.6,0-1-0.2-1.1-0.7c-0.3-1.2-0.6-2.4-0.8-3.7
	c-0.1-0.5,0.1-0.8,0.6-1c0.7-0.3,1.5-0.7,2.2-0.9c0.6-0.2,0.9-0.6,0.9-1.1c0-0.3,0.1-0.6,0.2-0.9c0.2-0.5,0-0.9-0.4-1.2
	c-0.6-0.5-1.2-1.1-1.8-1.7C188.4,63.5,188.3,63.3,188.1,63.1z M201.2,64.2c-2.8,0.6-4.4,3.1-3.8,5.9c0.6,2.8,3.2,4.5,6.1,3.8
	c2.7-0.6,4.3-3.3,3.7-6C206.6,65.2,204,63.6,201.2,64.2z"/>
<g>
	<g>
		<path class="st3" d="M220.3,263H80.2c-4,0-7.2-3.2-7.2-7.2V140.4c0-4,3.2-7.2,7.2-7.2h140.1c4,0,7.2,3.2,7.2,7.2v115.4
			C227.6,259.8,224.3,263,220.3,263z"/>
		<g>
			<g>
				<path class="st4" d="M117,195.6H98.6c-2.4,0-4.4-2-4.4-4.4v-18.5c0-2.4,2-4.4,4.4-4.4H117c2.4,0,4.4,2,4.4,4.4v18.5
					C121.4,193.6,119.4,195.6,117,195.6z"/>
			</g>
			<g>
				<path class="st4" d="M159.5,195.6H141c-2.4,0-4.4-2-4.4-4.4v-18.5c0-2.4,2-4.4,4.4-4.4h18.5c2.4,0,4.4,2,4.4,4.4v18.5
					C163.9,193.6,161.9,195.6,159.5,195.6z"/>
			</g>
			<g>
				<path class="st4" d="M202,195.6h-18.5c-2.4,0-4.4-2-4.4-4.4v-18.5c0-2.4,2-4.4,4.4-4.4H202c2.4,0,4.4,2,4.4,4.4v18.5
					C206.3,193.6,204.4,195.6,202,195.6z"/>
			</g>
		</g>
		<path class="st5" d="M227.6,150.7H73V139c0-3.2,2.6-5.9,5.9-5.9h142.8c3.2,0,5.9,2.6,5.9,5.9V150.7z"/>
	</g>
	<g>
		<circle class="st6" cx="83.7" cy="141.3" r="4.4"/>
		<circle class="st6" cx="98.2" cy="141.3" r="4.4"/>
		<circle class="st6" cx="112.7" cy="141.3" r="4.4"/>
	</g>
</g>
</svg>
