<?xml version="1.0" encoding="utf-8"?>
<!-- Generator: Adobe Illustrator 22.0.1, SVG Export Plug-In . SVG Version: 6.00 Build 0)  -->
<svg version="1.1" id="Layer_1" xmlns="http://www.w3.org/2000/svg" xmlns:xlink="http://www.w3.org/1999/xlink" x="0px" y="0px"
	 viewBox="0 0 300 300" style="enable-background:new 0 0 300 300;" xml:space="preserve">
<style type="text/css">
	.st0{opacity:0.5;}
	.st1{fill:#818A99;}
	.st2{fill:none;stroke:#818A99;stroke-width:4;stroke-miterlimit:10;}
	.st3{fill:none;stroke:#818A99;stroke-width:5;stroke-miterlimit:10;}
	.st4{opacity:0.7;clip-path:url(#SVGID_2_);}
</style>
<g>
	<g class="st0">
		<circle class="st1" cx="218.4" cy="69.9" r="14.3"/>
		<circle class="st1" cx="81.8" cy="206.5" r="14.3"/>
		<circle class="st1" cx="218.4" cy="206.5" r="14.3"/>
		<circle class="st1" cx="83.3" cy="69.9" r="14.3"/>
		<line class="st2" x1="213.8" y1="75" x2="179.7" y2="109.1"/>
		<line class="st2" x1="123.2" y1="165.6" x2="89.1" y2="199.7"/>
		<line class="st2" x1="211.8" y1="197.7" x2="177.7" y2="163.6"/>
		<line class="st3" x1="121.2" y1="107.1" x2="87.1" y2="73"/>
	</g>
	<g class="st0">
		<circle class="st1" cx="149.5" cy="18.1" r="16.1"/>
		<circle class="st1" cx="149.5" cy="255.8" r="16.1"/>
		<circle class="st1" cx="270.4" cy="137" r="16.1"/>
		<circle class="st1" cx="29.8" cy="135.9" r="16.1"/>
		<line class="st2" x1="149.9" y1="24.9" x2="149.9" y2="107.1"/>
		<line class="st2" x1="149.9" y1="158" x2="149.9" y2="245.8"/>
		<line class="st2" x1="259.5" y1="135.4" x2="207.1" y2="135.4"/>
		<line class="st2" x1="87" y1="135.4" x2="34.5" y2="135.4"/>
	</g>
</g>
<g>
	<defs>
		<path id="SVGID_1_" d="M73.9,133.4l71.6-41.6c1.2-0.7,2.7-1,4.3-1c1.6,0,3.1,0.3,4.3,1l72.1,41.6c1.2,0.7,1.8,1.6,1.8,2.5
			c0,0.9-0.6,1.8-1.8,2.5L154.6,180c-1.2,0.7-2.7,1-4.3,1c-1.6,0-3.1-0.3-4.3-1l-72.1-41.6c-1.2-0.7-1.8-1.6-1.8-2.5
			C72.1,135,72.7,134.1,73.9,133.4z"/>
	</defs>
	<use xlink:href="#SVGID_1_"  style="overflow:visible;fill:#FFFFFF;"/>
	<clipPath id="SVGID_2_">
		<use xlink:href="#SVGID_1_"  style="overflow:visible;"/>
	</clipPath>
	<g class="st4">
		<polygon class="st1" points="186,103.4 143.5,128.6 103.3,105.4 155.8,74.9 186.8,92.8 		"/>
	</g>
	<g class="st4">
		<polygon class="st1" points="61.4,129.8 99.4,108.2 139.1,131.4 93.8,158.9 		"/>
	</g>
	<g class="st4">
		<polygon class="st1" points="178,170.4 153.3,156.2 151.7,140.5 165.5,132.1 204.7,154.7 		"/>
	</g>
	<g class="st4">
		<polygon class="st1" points="247.2,125.9 206.1,150.3 170.1,129.4 211.2,105 		"/>
	</g>
	
		<use xlink:href="#SVGID_1_"  style="overflow:visible;fill:none;stroke:#818A99;stroke-width:6;stroke-linejoin:round;stroke-miterlimit:10;"/>
</g>
</svg>
