<?xml version="1.0" encoding="utf-8"?>
<!-- Generator: Adobe Illustrator 22.0.1, SVG Export Plug-In . SVG Version: 6.00 Build 0)  -->
<svg version="1.1" id="Layer_1" xmlns="http://www.w3.org/2000/svg" xmlns:xlink="http://www.w3.org/1999/xlink" x="0px" y="0px"
	 viewBox="0 0 300 300" style="enable-background:new 0 0 300 300;" xml:space="preserve">
<style type="text/css">
	.st0{opacity:0.7;}
	.st1{fill:#818A99;}
	.st2{fill:#FFFFFF;stroke:#818A99;stroke-width:6;stroke-linejoin:round;stroke-miterlimit:10;}
</style>
<g class="st0">
	<path class="st1" d="M153.6,3.5c-28.3,0-51.2,19.1-51.2,53.4c0,36.9,42.6,97.1,51.2,97.1c8.6,0,51.2-60.1,51.2-97.1
		C204.8,22.6,181.9,3.5,153.6,3.5z M153.6,75c-13.6,0-24.6-10.9-24.6-24.4c0-13.5,11-24.4,24.6-24.4c13.6,0,24.6,10.9,24.6,24.4
		C178.2,64.1,167.2,75,153.6,75z"/>
</g>
<g>
	<path class="st2" d="M225.3,211.2c11.9-2.7,16.9-6.3,27.8-14c5.7-4.1,19.3,0,14.6,10.6c-6.3,14.1-35.6,32.5-76.3,38
		c-25.8,3.5-56.9,5.1-74.6-8.2c-14.1-10.5-21.6-15.4-37.8-15.4c-8,0-19.4,3.3-27.6,1.8c-16.7-3.2-15.3-24.3-11.1-30.8
		c4.7-7.3,13.3-9.8,36.5-19.2c16.7-6.8,31.8-8.4,47.1-3.7c9.9,3,21.8,13.3,46.1,26.3c21.4,11.4,55,1.7,56.2,17.7
		c0.9,12.7-36.1,16.8-69.1,1.8c-27.9-12.7-41.4,0.4-41.4,0.4"/>
	<rect x="31.9" y="170.9" class="st2" width="27.3" height="65.3"/>
</g>
</svg>
